<?xml version="1.0" encoding="UTF-8"?>
<svg width="150px" height="150px" viewBox="0 0 150 150" version="1.1" xmlns="http://www.w3.org/2000/svg" xmlns:xlink="http://www.w3.org/1999/xlink">
    <!-- Generator: Sketch 50 (54983) - http://www.bohemiancoding.com/sketch -->
    <title>Eye</title>
    <desc>Created with Sketch.</desc>
    <defs></defs>
    <g id="Eye" stroke="none" stroke-width="1" fill="none" fill-rule="evenodd">
        <g id="eye" transform="translate(0.000000, 27.000000)" fill="#000000" fill-rule="nonzero">
            <path d="M148.960714,45.0428571 C147.605357,43.2 115.339286,0.00535714286 75,0.00535714286 C34.6607143,0.00535714286 2.39464286,43.2053571 1.03928571,45.0428571 C-0.348214286,46.9339286 -0.348214286,49.5053571 1.03928571,51.3964286 C2.39464286,53.2339286 34.6607143,96.4285714 75,96.4285714 C115.339286,96.4285714 147.605357,53.2285714 148.960714,51.3910714 C150.342857,49.5053571 150.342857,46.9285714 148.960714,45.0428571 Z M75,80.3571429 C57.2410714,80.3571429 42.8571429,65.9732143 42.8571429,48.2142857 C42.8571429,30.4660714 57.2410714,16.0714286 75,16.0714286 C92.7535714,16.0714286 107.142857,30.4660714 107.142857,48.2142857 C107.142857,65.9732143 92.7535714,80.3571429 75,80.3571429 Z M75,26.7857143 C72.825,26.7857143 70.7678571,27.2035714 68.7910714,27.8089286 C72.4446429,29.5125 75,33.1982143 75,37.5 C75,43.4142857 70.2,48.2142857 64.2857143,48.2142857 C59.9839286,48.2142857 56.2982143,45.6589286 54.5892857,42 C53.9892857,43.9821429 53.5714286,46.0392857 53.5714286,48.2142857 C53.5714286,60.0535714 63.1607143,69.6428571 75,69.6428571 C86.8392857,69.6428571 96.4285714,60.0535714 96.4285714,48.2142857 C96.4285714,36.3857143 86.8392857,26.7857143 75,26.7857143 Z" id="Shape"></path>
        </g>
    </g>
</svg>