<?xml version="1.0" encoding="UTF-8"?>
<svg width="150px" height="150px" viewBox="0 0 150 150" version="1.1" xmlns="http://www.w3.org/2000/svg" xmlns:xlink="http://www.w3.org/1999/xlink">
    <!-- Generator: Sketch 50 (54983) - http://www.bohemiancoding.com/sketch -->
    <title>friendly</title>
    <desc>Created with Sketch.</desc>
    <defs></defs>
    <g id="Artwork" stroke="none" stroke-width="1" fill="none" fill-rule="evenodd">
        <g id="Friendly" fill-rule="nonzero">
            <g id="friendly">
                <path d="M149.183003,68.4870058 C151.452342,59.577815 148.920796,50.1295612 142.500964,43.5488892 C141.118735,42.1317975 139.907308,40.5685145 138.882209,38.8930242 C130.410714,43.4273071 119.405622,37.9593316 118.555426,27.7432058 C108.606195,26.9149822 103.161656,16.455692 107.072501,8.08497858 C106.862735,7.89308383 106.655313,7.69796637 106.451407,7.49874742 C99.8701483,1.07920827 90.4221875,-1.4523378 81.5129963,0.817000921 C77.2394558,1.90567413 72.7608371,1.90567413 68.4870037,0.817000921 C59.5778125,-1.4523378 50.1298517,1.07920827 43.5488863,7.49904037 C40.3918511,10.5787316 36.513526,12.8178945 32.2681105,14.0120366 C23.4178064,16.5013952 16.5013915,23.4178099 14.0120329,32.2681137 C12.8178908,36.513822 10.5787278,40.3918542 7.49903642,43.5488892 C1.07920415,50.1298546 -1.45234199,59.577815 0.816996796,68.4870058 C1.90567003,72.7605462 1.90567003,77.239165 0.816996796,81.5129983 C-1.45234199,90.4221892 1.07920415,99.8704429 7.49903642,106.451115 C10.5787278,109.60815 12.8178908,113.486475 14.0120329,117.73189 C16.5013915,126.582194 23.4178064,133.498609 32.2681105,135.987967 C36.5138189,137.18211 40.3918511,139.421272 43.5488863,142.500964 C50.1298517,148.920796 59.5778125,151.452342 68.4870037,149.183003 C72.7605442,148.09433 77.2391629,148.09433 81.5129963,149.183003 C90.4221875,151.452342 99.8701483,148.920796 106.451114,142.500964 C109.608149,139.421272 113.486474,137.18211 117.73189,135.987967 C126.582194,133.498609 133.498608,126.582194 135.987967,117.73189 C137.182109,113.486182 139.421272,109.60815 142.500964,106.451115 C148.920796,99.8701496 151.452342,90.4221892 149.183003,81.5129983 C148.09433,77.239165 148.09433,72.7611321 149.183003,68.4870058 Z" id="Shape" fill="#F6B778"></path>
                <path d="M56.4364762,142.503682 C53.23317,139.423875 49.2980021,137.184628 44.9903637,135.99044 C36.0103456,133.500988 28.9925605,126.584021 26.4667167,117.733677 C25.2550727,113.488102 22.9830915,109.609631 19.8582627,106.452477 C13.3443383,99.8712646 10.7756887,90.4229488 13.078288,81.5134229 C14.1829173,77.2397217 14.1829173,72.7609346 13.078288,68.4869404 C10.7756887,59.577415 13.3443383,50.1288058 19.8582627,43.5478863 C22.9830915,40.3907325 25.2550727,36.5119686 26.4667167,32.2666865 C28.9925605,23.4163429 36.0103456,16.4993751 44.9903637,14.009923 C49.2982996,12.815736 53.23317,10.5764889 56.4364762,7.49668175 C59.9777704,4.09137376 64.3377271,1.78063951 69,0.699249863 C60.1049987,-1.3592285 50.7438896,1.19204243 44.1871592,7.49668175 C40.983853,10.5764889 37.0486853,12.815736 32.741047,14.009923 C23.7610287,16.4993751 16.7432436,23.4163429 14.2173998,32.2666865 C13.0057558,36.5122615 10.7337746,40.3907325 7.60894583,43.5478863 C1.09502148,50.1288058 -1.4736282,59.5771221 0.828971083,68.4866475 C1.93360043,72.7603488 1.93360043,77.2391358 0.828971083,81.51313 C-1.4736282,90.4226558 1.09502148,99.8712646 7.60894583,106.452184 C10.7337746,109.609045 13.0057558,113.488102 14.2173998,117.733384 C16.7432436,126.584021 23.7610287,133.500695 32.741047,135.990148 C37.0489826,137.184335 40.983853,139.423289 44.1871592,142.503389 C50.7438896,148.807442 60.1055933,151.359299 69,149.300821 C64.3377271,148.219431 59.9777704,145.908404 56.4364762,142.503682 Z" id="Shape" fill="#DDA46C"></path>
                <g id="Group" transform="translate(45.000000, 69.000000)" fill="#3B484A">
                    <path d="M2.48762376,8.58626087 C1.21990099,8.58626087 0.192772277,7.68391304 0.192772277,6.57078262 L0.192772277,2.19782609 C0.192772277,1.08469565 1.21990099,0.182347826 2.48762376,0.182347826 C3.75534653,0.182347826 4.78247525,1.08469565 4.78247525,2.19782609 L4.78247525,6.57078262 C4.78277229,7.68365217 3.7550495,8.58626087 2.48762376,8.58626087 Z" id="Shape"></path>
                    <path d="M57.5123762,8.58626087 C56.2446533,8.58626087 55.2175246,7.68391304 55.2175246,6.57078262 L55.2175246,2.19782609 C55.2175246,1.08469565 56.2446533,0.182347826 57.5123762,0.182347826 C58.7800992,0.182347826 59.8072279,1.08469565 59.8072279,2.19782609 L59.8072279,6.57078262 C59.8072279,7.68365217 58.7800992,8.58626087 57.5123762,8.58626087 Z" id="Shape"></path>
                    <path d="M30,11.8181739 C26.0860396,11.8181739 22.4153465,10.3852174 19.9289109,7.88713042 C19.0948515,7.04895654 19.1922772,5.77565217 20.1466337,5.04313042 C21.1009901,4.31060871 22.550495,4.39617392 23.3848515,5.23408696 C24.9992079,6.85643479 27.410198,7.78695654 29.999703,7.78695654 C32.5889109,7.78695654 35.000198,6.85669567 36.6148515,5.23408696 C37.4489109,4.39591304 38.8984158,4.31060871 39.8530693,5.04339129 C40.8071287,5.77591304 40.9048515,7.04921737 40.070198,7.88739129 C37.5843564,10.3854782 33.9136634,11.8181739 30,11.8181739 Z" id="Shape"></path>
                </g>
                <g id="Group" transform="translate(24.000000, 18.000000)" fill="#8B6C52">
                    <ellipse id="Oval" cx="31.5092293" cy="8.15091379" rx="10.356172" ry="7.87774137"></ellipse>
                    <ellipse id="Oval" cx="10.5110732" cy="81.3828104" rx="10.356172" ry="7.87774138"></ellipse>
                    <ellipse id="Oval" cx="82.3509075" cy="94.0706725" rx="10.356172" ry="7.87774138"></ellipse>
                </g>
                <g id="Group" transform="translate(18.000000, 33.000000)" fill="#654D3B">
                    <ellipse id="Oval" cx="48.4067804" cy="87.426975" rx="7.13116458" ry="5.45880938"></ellipse>
                    <ellipse id="Oval" cx="77.739935" cy="5.55994688" rx="7.13116458" ry="5.45880938"></ellipse>
                    <ellipse id="Oval" cx="7.154798" cy="26.2602938" rx="7.13116458" ry="5.45880938"></ellipse>
                    <ellipse id="Oval" cx="109.748334" cy="45.7958154" rx="7.13116458" ry="5.45880938"></ellipse>
                </g>
            </g>
        </g>
    </g>
</svg>