<?xml version="1.0" encoding="UTF-8"?>
<svg width="149px" height="149px" viewBox="0 0 149 149" version="1.1" xmlns="http://www.w3.org/2000/svg" xmlns:xlink="http://www.w3.org/1999/xlink">
    <!-- Generator: Sketch 50 (54983) - http://www.bohemiancoding.com/sketch -->
    <title>minimal</title>
    <desc>Created with Sketch.</desc>
    <defs></defs>
    <g id="Artwork" stroke="none" stroke-width="1" fill="none" fill-rule="evenodd">
        <g id="Minimal" transform="translate(-1.000000, -1.000000)" fill="#000000" fill-rule="nonzero">
            <g id="minimal" transform="translate(1.000000, 1.000000)">
                <path d="M74.5172414,149 C54.3137931,149 35.4075862,141.090583 21.2744828,126.712083 C7.25310345,112.451542 -0.288275862,93.6030417 0.0406896552,73.6370417 C0.0655172414,72.171875 0.611724138,70.756375 1.58,69.6512917 C2.41172414,68.7014167 3.56,67.962625 4.78275862,67.6522083 C10.2758621,66.26775 14.9186207,62.561375 17.537931,57.4829583 C18.9841379,54.6767917 22.3048276,53.4040833 25.2593103,54.5215833 C38.9641379,59.7241667 52.0234483,49.263125 52.0234483,36.0828333 L51.9055172,34.97775 L51.7689655,33.9409583 C51.5827586,32.2274583 52.1227586,30.5139583 53.2524138,29.2102083 C54.382069,27.9126667 56.002069,27.136625 57.7275862,27.0745417 C66.622069,26.7703333 74.2565517,20.543375 76.2924138,11.9324167 C77.8627586,5.29570833 84.6903448,1.20441667 91.5241379,2.775125 C125.364138,10.6472917 149,40.2982917 149,74.8849167 C149,115.754375 115.588276,149 74.5172414,149 Z M12.5289655,78.11325 C13.2986207,93.125 19.4558621,107.162042 30.1255172,118.008 C41.9062069,129.990083 57.6717241,136.583333 74.5172414,136.583333 C108.742069,136.583333 136.586207,108.906583 136.586207,74.8849167 C136.586207,46.1030833 116.897931,21.4249583 88.7124138,14.8689583 L88.2965517,14.9496667 C85.5282759,26.8075833 76.0565517,35.94625 64.3317241,38.6655 C63.0096552,55.2293333 49.1186207,68.2916667 32.2358621,68.2916667 C30.1068966,68.2916667 27.9655172,68.0619583 25.8241379,67.60875 C22.397931,72.2339583 17.8048276,75.859625 12.5289655,78.11325 Z" id="Shape"></path>
                <ellipse id="Oval" cx="90.0344828" cy="52.7708333" rx="9.31034483" ry="9.3125"></ellipse>
                <ellipse id="Oval" cx="46.5862069" cy="90.0208333" rx="9.31034483" ry="9.3125"></ellipse>
                <ellipse id="Oval" cx="96.2413793" cy="102.4375" rx="9.31034483" ry="9.3125"></ellipse>
                <ellipse id="Oval" cx="74.5172414" cy="74.5" rx="6.20689655" ry="6.20833333"></ellipse>
                <ellipse id="Oval" cx="62.1034483" cy="111.75" rx="6.20689655" ry="6.20833333"></ellipse>
                <ellipse id="Oval" cx="55.8965517" cy="6.20833333" rx="6.20689655" ry="6.20833333"></ellipse>
                <ellipse id="Oval" cx="27.9655172" cy="34.1458333" rx="9.31034483" ry="9.3125"></ellipse>
                <ellipse id="Oval" cx="111.758621" cy="74.5" rx="6.20689655" ry="6.20833333"></ellipse>
            </g>
        </g>
    </g>
</svg>