<?xml version="1.0" encoding="UTF-8"?>
<svg width="150px" height="150px" viewBox="0 0 150 150" version="1.1" xmlns="http://www.w3.org/2000/svg" xmlns:xlink="http://www.w3.org/1999/xlink">
    <!-- Generator: Sketch 50 (54983) - http://www.bohemiancoding.com/sketch -->
    <title>rocket</title>
    <desc>Created with Sketch.</desc>
    <defs></defs>
    <g id="Artwork" stroke="none" stroke-width="1" fill="none" fill-rule="evenodd">
        <g id="rocket">
            <g>
                <circle id="Oval" fill="#44AD00" fill-rule="nonzero" cx="74.806106" cy="74.806106" r="74.806106"></circle>
                <path d="M74.5036086,6.19389401 C72.5518178,6.19389401 70.6207197,6.27952959 68.7096774,6.43870352 C104.052021,9.38151119 131.818958,38.9948664 131.818958,75.0967878 C131.818958,111.198709 104.052021,140.812064 68.7096774,143.75519 C70.6207197,143.914364 72.5518178,144 74.5036086,144 C112.557639,144 143.406502,113.151137 143.406502,75.0971062 C143.406502,37.0430756 112.557639,6.19389401 74.5036086,6.19389401 Z" id="Shape" fill="#000000" fill-rule="nonzero" opacity="0.08"></path>
                <path d="M75,142.806106 C112.448278,142.806106 142.806106,112.448278 142.806106,75 C142.806106,37.5517217 112.448278,7.19389401 75,7.19389401 C37.5517217,7.19389401 7.19389401,37.5517217 7.19389401,75 C7.19389401,112.448278 37.5517217,142.806106 75,142.806106 Z M75,149.806106 C33.6857285,149.806106 0.193894009,116.314272 0.193894009,75 C0.193894009,33.6857285 33.6857285,0.193894009 75,0.193894009 C116.314272,0.193894009 149.806106,33.6857285 149.806106,75 C149.806106,116.314272 116.314272,149.806106 75,149.806106 Z" id="Oval" fill="#225600" fill-rule="nonzero"></path>
                <path d="M49.3799639,83.7733711 L41.6861497,91.4648143 L36.5079402,96.6430239 L44.9272727,96.6430239 L40.7187919,109.268466 L53.3466052,105.059985 L53.3466052,113.476947 L59.8928674,106.933056 L66.2186289,100.609665 C61.8702606,100.005067 58.0008292,98.1248833 54.9351585,95.0592125 C51.8671167,91.9887998 49.9845625,88.1193685 49.3799639,83.7733711 Z M97.5415806,52.4551613 C101.029285,55.9381237 101.029285,61.5928993 97.5415806,65.0806036 C94.0562473,68.565937 88.4014717,68.565937 84.9137674,65.0806036 C81.426063,61.5928993 81.426063,55.9404947 84.9137674,52.4551613 C88.3991007,48.969828 94.0538763,48.969828 97.5415806,52.4551613 Z M114.377875,35.6212383 C116.483301,41.9327739 113.725857,65.7326218 98.6180033,80.835733 C97.7549684,81.698768 96.8871915,82.5191253 96.0217856,83.3015471 L96.7733847,90.926603 C97.2594346,95.865344 95.1350409,100.351229 91.0024314,103.103931 L72.2859541,115.580002 L70.6926588,94.8695345 C66.3158388,94.727276 62.5199077,93.1885132 59.6581408,90.3291172 C56.8177127,87.4886891 55.2765789,83.7235807 55.1177235,79.3823253 L35,78.0948858 L46.9070368,59.2954244 C49.6289162,54.9992176 54.2380918,52.7610171 59.3001236,53.2755187 L66.6430334,54.0223759 C67.4373101,53.1403731 68.2742643,52.2583704 69.153896,51.3787386 C84.2617492,36.2732564 108.063968,33.5181834 114.377875,35.6212383 Z" id="Shape" fill="#FFFFFF"></path>
            </g>
        </g>
    </g>
</svg>