<?xml version="1.0" encoding="UTF-8"?>
<svg width="36px" height="36px" viewBox="0 0 36 36" version="1.1" xmlns="http://www.w3.org/2000/svg" xmlns:xlink="http://www.w3.org/1999/xlink">
    <!-- Generator: Sketch 50 (54983) - http://www.bohemiancoding.com/sketch -->
    <title>cookie</title>
    <desc>Created with Sketch.</desc>
    <defs></defs>
    <g id="Cookie-Pop-out" stroke="none" stroke-width="1" fill="none" fill-rule="evenodd">
        <g id="Cookies-accpeted---window" transform="translate(-27.000000, -997.000000)" fill-rule="nonzero">
            <g id="cookie" transform="translate(27.000000, 997.000000)">
                <path d="M35.8039208,16.4368814 C36.3485621,14.2986756 35.740991,12.0310947 34.2002313,10.4517334 C33.8684965,10.1116314 33.5777539,9.73644349 33.3317302,9.33432581 C31.2985714,10.4225537 28.6573493,9.11023959 28.4533022,6.6583694 C26.0654867,6.45959572 24.7587975,3.94936607 25.6974003,1.94039486 C25.6470565,1.89434012 25.5972752,1.84751193 25.5483376,1.79969938 C23.9688356,0.259009985 21.701325,-0.348561072 19.5631191,0.196080221 C18.5374694,0.457361791 17.4626009,0.457361791 16.4368809,0.196080221 C14.298675,-0.348561072 12.0311644,0.259009985 10.4517327,1.79976969 C9.69404427,2.53889559 8.76324623,3.07629469 7.74434651,3.36288879 C5.62027353,3.96033484 3.96033395,5.62027437 3.36288789,7.74434729 C3.07629378,8.76331729 2.53889467,9.694045 1.79976874,10.4517334 C0.259008997,12.0311651 -0.348562077,14.2986756 0.196079231,16.4368814 C0.457360808,17.4625311 0.457360808,18.5373996 0.196079231,19.5631196 C-0.348562077,21.7013254 0.259008997,23.9689063 1.79976874,25.5482676 C2.53889467,26.305956 3.07629378,27.236754 3.36288789,28.2556537 C3.96033395,30.3797266 5.62027353,32.0396662 7.74434651,32.6371122 C8.76331654,32.9237063 9.69404427,33.4611054 10.4517327,34.2002313 C12.0311644,35.740991 14.298675,36.3485621 16.4368809,35.8039208 C17.4625306,35.5426392 18.5373991,35.5426392 19.5631191,35.8039208 C21.701325,36.3485621 23.9688356,35.740991 25.5482673,34.2002313 C26.3059557,33.4611054 27.2367538,32.9237063 28.2556535,32.6371122 C30.3797265,32.0396662 32.039666,30.3797266 32.6371121,28.2556537 C32.9237062,27.2366837 33.4611053,26.305956 34.2002313,25.5482676 C35.740991,23.9688359 36.3485621,21.7013254 35.8039208,19.5631196 C35.5426392,18.5373996 35.5426392,17.4626717 35.8039208,16.4368814 Z" id="Shape" fill="#F6B778"></path>
                <path d="M13.5447543,34.2008836 C12.7759608,33.4617299 11.8315205,32.9243106 10.7976873,32.6377057 C8.64248295,32.0402372 6.95821452,30.380165 6.352012,28.2560825 C6.06121744,27.2371445 5.51594195,26.3063115 4.76598305,25.5485945 C3.2026412,23.9691035 2.58616528,21.7015077 3.13878911,19.5632215 C3.40390015,18.5375332 3.40390015,17.4626243 3.13878911,16.4368657 C2.58616528,14.2985796 3.2026412,12.0309134 4.76598305,10.4514927 C5.51594195,9.69377579 6.06121744,8.76287246 6.352012,7.74400477 C6.95821452,5.61992229 8.64248295,3.95985002 10.7976873,3.36238151 C11.8315919,3.07577663 12.7759608,2.53835733 13.5447543,1.79920362 C14.3946649,0.981929703 15.4410545,0.427353482 16.56,0.167819967 C14.4251997,-0.326214841 12.1785335,0.286090184 10.6049182,1.79920362 C9.83612473,2.53835733 8.89168448,3.07577663 7.85785129,3.36238151 C5.7026469,3.95985002 4.01837847,5.61992229 3.41217595,7.74400477 C3.12138139,8.76294277 2.5761059,9.69377579 1.826147,10.4514927 C0.262805155,12.0309134 -0.353670767,14.2985093 0.19895306,16.4367954 C0.464064103,17.4624837 0.464064103,18.5373926 0.19895306,19.5631512 C-0.353670767,21.7014374 0.262805155,23.9691035 1.826147,25.5485242 C2.5761059,26.3061708 3.12138139,27.2371445 3.41217595,28.2560122 C4.01837847,30.380165 5.7026469,32.0401669 7.85785129,32.6376354 C8.89175582,32.9242403 9.83612473,33.4615893 10.6049182,34.2008133 C12.1785335,35.7137861 14.4253424,36.3262318 16.56,35.832197 C15.4410545,35.5726635 14.3946649,35.0180169 13.5447543,34.2008836 Z" id="Shape" fill="#DDA46C"></path>
                <g id="Group" transform="translate(10.800000, 16.560000)" fill="#3B484A">
                    <path d="M0.597029703,2.06070261 C0.292776238,2.06070261 0.0462653465,1.84413913 0.0462653465,1.57698783 L0.0462653465,0.527478261 C0.0462653465,0.260326957 0.292776238,0.0437634783 0.597029703,0.0437634783 C0.901283168,0.0437634783 1.14779406,0.260326957 1.14779406,0.527478261 L1.14779406,1.57698783 C1.14786535,1.84407652 0.901211881,2.06070261 0.597029703,2.06070261 Z" id="Shape"></path>
                    <path d="M13.8029703,2.06070261 C13.4987168,2.06070261 13.2522059,1.84413913 13.2522059,1.57698783 L13.2522059,0.527478261 C13.2522059,0.260326957 13.4987168,0.0437634783 13.8029703,0.0437634783 C14.1072238,0.0437634783 14.3537347,0.260326957 14.3537347,0.527478261 L14.3537347,1.57698783 C14.3537347,1.84407652 14.1072238,2.06070261 13.8029703,2.06070261 Z" id="Shape"></path>
                    <path d="M7.2,2.83636174 C6.2606495,2.83636174 5.37968317,2.49245217 4.78293861,1.8929113 C4.58276436,1.69174957 4.60614653,1.38615652 4.83519208,1.2103513 C5.06423762,1.03454609 5.41211881,1.05508174 5.61236436,1.25618087 C5.9998099,1.64554435 6.57844752,1.86886957 7.19992871,1.86886957 C7.82133861,1.86886957 8.40004752,1.64560696 8.78756436,1.25618087 C8.98773861,1.05501913 9.3356198,1.03454609 9.56473663,1.21041391 C9.79371089,1.38621913 9.81716436,1.69181217 9.61684752,1.89297391 C9.02024554,2.49251478 8.13927921,2.83636174 7.2,2.83636174 Z" id="Shape"></path>
                </g>
                <g id="Group" transform="translate(5.760000, 4.320000)" fill="#8B6C52">
                    <ellipse id="Oval" cx="7.56221503" cy="1.95621931" rx="2.48548127" ry="1.89065793"></ellipse>
                    <ellipse id="Oval" cx="2.52265758" cy="19.5318745" rx="2.48548127" ry="1.89065793"></ellipse>
                    <ellipse id="Oval" cx="19.7642178" cy="22.5769614" rx="2.48548127" ry="1.89065793"></ellipse>
                </g>
                <g id="Group" transform="translate(4.320000, 7.920000)" fill="#654D3B">
                    <ellipse id="Oval" cx="11.6176273" cy="20.982474" rx="1.7114795" ry="1.31011425"></ellipse>
                    <ellipse id="Oval" cx="18.6575844" cy="1.33438725" rx="1.7114795" ry="1.31011425"></ellipse>
                    <ellipse id="Oval" cx="1.71715152" cy="6.3024705" rx="1.7114795" ry="1.31011425"></ellipse>
                    <ellipse id="Oval" cx="26.3396002" cy="10.9909957" rx="1.7114795" ry="1.31011425"></ellipse>
                </g>
            </g>
        </g>
    </g>
</svg>